<svg viewBox="0 -40 512 512" xmlns="http://www.w3.org/2000/svg"><path d="m50.6875 281.929688c27.996094 0 50.691406-22.695313 50.691406-50.691407l57.621094-.726562v-224.511719l-57.621094-6h-50.691406c-27.992188 0-50.6875 22.695312-50.6875 50.691406v180.546875c0 27.996094 22.695312 50.691407 50.6875 50.691407zm0 0" fill="#8d5c4d"/><path d="m461.3125 281.929688c-27.996094 0-50.691406-22.695313-50.691406-50.691407l-57.621094-.726562v-223.511719l58.25-7h50.0625c27.992188 0 50.6875 22.695312 50.6875 50.6875v180.550781c0 27.996094-22.695312 50.691407-50.6875 50.691407zm0 0" fill="#704639"/><path d="m152.320312 332.246094h207.359376v85.726562h-207.359376zm0 0" fill="#dc934b"/><path d="m256 332.246094h103.679688v85.726562h-103.679688zm0 0" fill="#d1813b"/><path d="m136.910156 402.972656h238.179688v30h-238.179688zm0 0" fill="#e3b476"/><path d="m256 402.972656h119.089844v30h-119.089844zm0 0" fill="#e0a05c"/><path d="m256 377.261719c-85.394531 0-154.621094-69.226563-154.621094-154.621094v-222.640625h309.242188v222.640625c0 85.394531-69.226563 154.621094-154.621094 154.621094zm0 0" fill="#e3b476"/><path d="m256 377.261719c0-98.214844 0-377.261719 0-377.261719h154.621094v222.640625c0 85.394531-69.226563 154.621094-154.621094 154.621094zm0 0" fill="#e0a05c"/><path d="m300.050781 264.476562v14.710938c0 8.011719-6.515625 14.527344-14.527343 14.527344-8.007813 0-14.523438-6.515625-14.523438-14.527344v-51.058594h-30v51.058594c0 8.011719-6.515625 14.527344-14.523438 14.527344-8.011718 0-14.527343-6.515625-14.527343-14.527344v-14.710938h-30v14.710938c0 24.550781 19.976562 44.527344 44.527343 44.527344 11.320313 0 21.660157-4.253906 29.523438-11.238282 7.863281 6.984376 18.203125 11.238282 29.523438 11.238282 24.550781 0 44.527343-19.976563 44.527343-44.527344v-14.710938zm0 0" fill="#c7732e"/><path d="m300.050781 264.476562v14.710938c0 8.011719-6.515625 14.527344-14.527343 14.527344-8.007813 0-14.523438-6.515625-14.523438-14.527344v-51.058594h-15v84.347656c7.863281 6.984376 18.203125 11.238282 29.523438 11.238282 24.550781 0 44.527343-19.976563 44.527343-44.527344v-14.710938zm0 0" fill="#bc6829"/><path d="m180.125 104.441406h30v30h-30zm0 0" fill="#333940"/><path d="m301.875 104.441406h30v30h-30zm0 0" fill="#23272b"/><path d="m287.285156 234.550781-31.285156 24.8125-31.285156-24.8125c-8.792969-6.976562-13.921875-17.589843-13.921875-28.816406 0-20.316406 16.46875-36.785156 36.78125-36.785156h16.851562c20.3125 0 36.78125 16.46875 36.78125 36.785156 0 11.226563-5.128906 21.835937-13.921875 28.816406zm0 0" fill="#5e382c"/><path d="m287.285156 234.550781-31.285156 24.8125v-90.414062h8.425781c20.3125 0 36.78125 16.46875 36.78125 36.78125 0 11.230469-5.128906 21.839843-13.921875 28.820312zm0 0" fill="#4f2f25"/></svg>