<?xml version="1.0" encoding="iso-8859-1"?>
<!-- Generator: Adobe Illustrator 19.0.0, SVG Export Plug-In . SVG Version: 6.00 Build 0)  -->
<svg version="1.1" id="Capa_1" xmlns="http://www.w3.org/2000/svg" xmlns:xlink="http://www.w3.org/1999/xlink" x="0px" y="0px"
	 viewBox="0 0 512 512" style="enable-background:new 0 0 512 512;" xml:space="preserve">
<polygon style="fill:#D6EAF1;" points="123.733,512 345.6,281.6 388.267,324.267 422.4,290.133 499.2,213.333 499.2,512 "/>
<rect x="29.867" y="494.933" style="fill:#00448F;" width="51.2" height="17.067"/>
<g>
	<rect x="298.667" style="fill:#5B5B5B;" width="8.533" height="401.067"/>
	<rect x="285.867" y="379.733" style="fill:#5B5B5B;" width="34.133" height="8.533"/>
</g>
<polygon style="fill:#FFDB6F;" points="302.933,51.2 226.133,136.533 166.4,145.067 166.4,110.933 209.067,110.933 285.867,51.2 "/>
<path style="fill:#62BEFF;" d="M45.483,85.333c14.916,0,27.008,12.092,27.008,27.008s-12.092,27.008-27.008,27.008h-5.632
	c-14.916,0-27.008-12.092-27.008-27.008s12.092-27.008,27.008-27.008H45.483z"/>
<path style="fill:#00448F;" d="M72.533,156.416v91.051c0,4.71-3.823,8.533-8.533,8.533H46.933c-18.85,0-34.133-15.283-34.133-34.133
	v-65.451c0.026-9.412,7.654-17.041,17.067-17.067h25.6C64.879,139.375,72.508,147.004,72.533,156.416z"/>
<path style="fill:#FF8030;" d="M72.533,156.416V128c0.026-9.412,7.654-17.041,17.067-17.067h76.8v34.133l-26.283,3.243l0.683,5.291
	L132.267,256H72.533V156.416z"/>
<polygon style="fill:#00448F;" points="132.267,256 226.133,315.733 192,443.733 166.4,443.733 183.467,332.8 118.528,292.267 
	123.733,256 "/>
<g>
	<polygon style="fill:#62BEFF;" points="118.528,292.267 106.667,375.467 55.467,503.467 29.867,503.467 72.533,366.933 72.533,256 
		81.067,256 123.733,256 	"/>
	<rect x="166.4" y="435.2" style="fill:#62BEFF;" width="51.2" height="17.067"/>
</g>
<path style="fill:#FFDB6F;" d="M132.267,42.667v17.067c0,14.14-11.46,25.6-25.6,25.6s-25.6-11.46-25.6-25.6V42.667H132.267z"/>
<path style="fill:#EC9821;" d="M132.267,8.533v34.133h-51.2V25.6c0.026-9.412,7.654-17.041,17.067-17.067H132.267z"/>
<rect x="285.867" y="42.667" style="fill:#FFDB6F;" width="34.133" height="17.067"/>
<polygon style="fill:#D6EAF1;" points="499.2,42.667 439.467,102.4 418.133,81.067 328.533,170.667 499.2,170.667 "/>
<polygon style="fill:#62BEFF;" points="499.2,162.133 469.333,132.267 439.467,162.133 388.267,110.933 328.533,170.667 
	499.2,170.667 "/>
<g>
</g>
<g>
</g>
<g>
</g>
<g>
</g>
<g>
</g>
<g>
</g>
<g>
</g>
<g>
</g>
<g>
</g>
<g>
</g>
<g>
</g>
<g>
</g>
<g>
</g>
<g>
</g>
<g>
</g>
</svg>
